# xmcd CD database generated by RipIT
#
# Track frame offsets:
# 150
# 12683
# 28886
# 42345
# 57381
# 71265
# 85374
# 102650
# 117232
# 133041
# 146805
# 161759
# 176342
# 191515
#
# Disc length: 2742 seconds
#
# Revision: 3
# Processed by: cddbd v1.5.2PL0 Copyright (c) Steve Scherf et al.
# Submitted via: RipIT 3.8.1 www.suwald.com/ripit/ripit.html on 2009-12-13 at 23:00
#
DISCID=cf0ab40e
DTITLE=Truck Stop - Ihre größten Erfolge
DYEAR=2008
DGENRE=Country
TTITLE0=Der wilde, wilde Westen 
TTITLE1=Ich möchte' So gern Dave Dudley hör'n
TTITLE2=Take It Easy Altes Haus
TTITLE3=Easy Rider
TTITLE4=Asphaltfieber
TTITLE5=Das gibt's doch nur in Dallas
TTITLE6=Old Texas Town, Die Westernstadt
TTITLE7=Der Tramp
TTITLE8=Geiger In der Country Band
TTITLE9=Hilly Billy Country Lilly
TTITLE10=Black Jack
TTITLE11=Studio Nr. 9
TTITLE12=Mein Opa Das Bin Ich
TTITLE13=Happy Birthday
EXTD=
EXTT0=
EXTT1=
EXTT2=
EXTT3=
EXTT4=
EXTT5=
EXTT6=
EXTT7=
EXTT8=
EXTT9=
EXTT10=
EXTT11=
EXTT12=
EXTT13=
PLAYORDER=
